<svg width="25" height="25" viewBox="0 0 25 25" fill="none" xmlns="http://www.w3.org/2000/svg">
<mask id="mask0_113_230716" style="mask-type:alpha" maskUnits="userSpaceOnUse" x="5" y="5" width="15" height="15">
<path fill-rule="evenodd" clip-rule="evenodd" d="M10.4688 19.7631C10.2048 19.7631 9.94976 19.6591 9.76176 19.4701L5.76176 15.4701C5.37076 15.0791 5.37076 14.4471 5.76176 14.0561C6.15276 13.6651 6.78476 13.6651 7.17576 14.0561L10.3138 17.1941L17.6368 6.20807C17.9438 5.74807 18.5628 5.62507 19.0238 5.93107C19.4828 6.23807 19.6068 6.85807 19.3008 7.31807L11.3008 19.3181C11.1348 19.5671 10.8648 19.7291 10.5678 19.7581C10.5338 19.7611 10.5018 19.7631 10.4688 19.7631Z" fill="white"/>
</mask>
<g mask="url(#mask0_113_230716)">
<rect x="0.46875" y="0.763184" width="24" height="24" fill="#0097E6"/>
</g>
</svg>
